<svg width="64" height="64" viewBox="0 0 64 64" fill="none" xmlns="http://www.w3.org/2000/svg">
<g id="Adicionar Ac&#195;&#179;rd&#195;&#163;o">
<path id="Vector" d="M34.8015 15H23.3333C22.1841 15 21.0819 15.4478 20.2692 16.2448C19.4565 17.0418 19 18.1228 19 19.25V44.75C19 45.8772 19.4565 46.9582 20.2692 47.7552C21.0819 48.5522 22.1841 49 23.3333 49H40.6667C41.8159 49 42.9181 48.5522 43.7308 47.7552C44.5435 46.9582 45 45.8772 45 44.75V25.0024C44.9999 24.4388 44.7715 23.8984 44.3652 23.5L36.3333 15.6226C35.9271 15.2241 35.3761 15.0001 34.8015 15ZM35.25 22.4375V18.1875L41.75 24.5625H37.4167C36.842 24.5625 36.2909 24.3386 35.8846 23.9401C35.4783 23.5416 35.25 23.0011 35.25 22.4375ZM33.0833 29.875V33.0625H36.3333C36.6207 33.0625 36.8962 33.1744 37.0994 33.3737C37.3025 33.573 37.4167 33.8432 37.4167 34.125C37.4167 34.4068 37.3025 34.677 37.0994 34.8763C36.8962 35.0756 36.6207 35.1875 36.3333 35.1875H33.0833V38.375C33.0833 38.6568 32.9692 38.927 32.766 39.1263C32.5629 39.3256 32.2873 39.4375 32 39.4375C31.7127 39.4375 31.4371 39.3256 31.234 39.1263C31.0308 38.927 30.9167 38.6568 30.9167 38.375V35.1875H27.6667C27.3793 35.1875 27.1038 35.0756 26.9006 34.8763C26.6975 34.677 26.5833 34.4068 26.5833 34.125C26.5833 33.8432 26.6975 33.573 26.9006 33.3737C27.1038 33.1744 27.3793 33.0625 27.6667 33.0625H30.9167V29.875C30.9167 29.5932 31.0308 29.323 31.234 29.1237C31.4371 28.9244 31.7127 28.8125 32 28.8125C32.2873 28.8125 32.5629 28.9244 32.766 29.1237C32.9692 29.323 33.0833 29.5932 33.0833 29.875Z" fill="white"/>
</g>
</svg>
