<svg width="79" height="79" viewBox="0 0 79 79" fill="none" xmlns="http://www.w3.org/2000/svg">
<g id="file-text 2">
<path id="Vector" d="M28.7857 25C28.3121 25 27.8579 25.1881 27.523 25.523C27.1881 25.8579 27 26.3121 27 26.7857C27 27.2593 27.1881 27.7135 27.523 28.0484C27.8579 28.3833 28.3121 28.5714 28.7857 28.5714H50.2143C50.6879 28.5714 51.1421 28.3833 51.477 28.0484C51.8119 27.7135 52 27.2593 52 26.7857C52 26.3121 51.8119 25.8579 51.477 25.523C51.1421 25.1881 50.6879 25 50.2143 25H28.7857ZM27 33.9286C27 33.455 27.1881 33.0008 27.523 32.6659C27.8579 32.331 28.3121 32.1429 28.7857 32.1429H50.2143C50.6879 32.1429 51.1421 32.331 51.477 32.6659C51.8119 33.0008 52 33.455 52 33.9286C52 34.4022 51.8119 34.8564 51.477 35.1913C51.1421 35.5261 50.6879 35.7143 50.2143 35.7143H28.7857C28.3121 35.7143 27.8579 35.5261 27.523 35.1913C27.1881 34.8564 27 34.4022 27 33.9286ZM28.7857 39.2857C28.3121 39.2857 27.8579 39.4739 27.523 39.8087C27.1881 40.1436 27 40.5978 27 41.0714C27 41.545 27.1881 41.9992 27.523 42.3341C27.8579 42.669 28.3121 42.8571 28.7857 42.8571H50.2143C50.6879 42.8571 51.1421 42.669 51.477 42.3341C51.8119 41.9992 52 41.545 52 41.0714C52 40.5978 51.8119 40.1436 51.477 39.8087C51.1421 39.4739 50.6879 39.2857 50.2143 39.2857H28.7857ZM28.7857 46.4286C28.3121 46.4286 27.8579 46.6167 27.523 46.9516C27.1881 47.2865 27 47.7407 27 48.2143C27 48.6879 27.1881 49.1421 27.523 49.477C27.8579 49.8119 28.3121 50 28.7857 50H39.5C39.9736 50 40.4278 49.8119 40.7627 49.477C41.0976 49.1421 41.2857 48.6879 41.2857 48.2143C41.2857 47.7407 41.0976 47.2865 40.7627 46.9516C40.4278 46.6167 39.9736 46.4286 39.5 46.4286H28.7857Z" fill="white"/>
<path id="Vector_2" d="M18 18.125C18 16.2353 18.7551 14.4231 20.0991 13.0869C21.4431 11.7507 23.2659 11 25.1667 11H53.8333C55.7341 11 57.5569 11.7507 58.9009 13.0869C60.2449 14.4231 61 16.2353 61 18.125V60.875C61 62.7647 60.2449 64.5769 58.9009 65.9131C57.5569 67.2493 55.7341 68 53.8333 68H25.1667C23.2659 68 21.4431 67.2493 20.0991 65.9131C18.7551 64.5769 18 62.7647 18 60.875V18.125ZM53.8333 14.5625H25.1667C24.2163 14.5625 23.3049 14.9378 22.6329 15.6059C21.9609 16.274 21.5833 17.1802 21.5833 18.125V60.875C21.5833 61.8198 21.9609 62.726 22.6329 63.3941C23.3049 64.0622 24.2163 64.4375 25.1667 64.4375H53.8333C54.7837 64.4375 55.6951 64.0622 56.3671 63.3941C57.0391 62.726 57.4167 61.8198 57.4167 60.875V18.125C57.4167 17.1802 57.0391 16.274 56.3671 15.6059C55.6951 14.9378 54.7837 14.5625 53.8333 14.5625Z" fill="white"/>
</g>
</svg>
