<svg width="42" height="42" viewBox="0 0 42 42" fill="none" xmlns="http://www.w3.org/2000/svg">
<g id="highlights 1" clip-path="url(#clip0_43_26)">
<path id="Vector" d="M42 21C42 15.4305 39.7875 10.089 35.8492 6.15076C31.911 2.21249 26.5695 0 21 0C15.4305 0 10.089 2.21249 6.15076 6.15076C2.21249 10.089 0 15.4305 0 21C0 26.5695 2.21249 31.911 6.15076 35.8492C10.089 39.7875 15.4305 42 21 42C26.5695 42 31.911 39.7875 35.8492 35.8492C39.7875 31.911 42 26.5695 42 21ZM21 34.125V36.75H11.8125C11.7306 36.7502 11.6488 36.7581 11.5684 36.7736C10.3243 36.0292 9.17263 35.1401 8.1375 34.125H21ZM21 31.5H5.91938C5.33946 30.6686 4.82935 29.7906 4.39425 28.875H21V31.5ZM3.38625 26.25C3.12993 25.3903 2.93691 24.5129 2.80875 23.625H21V26.25H3.38625ZM2.625 21C2.625 20.1075 2.68625 19.2325 2.80875 18.375H21V21H2.625ZM3.38625 15.75C3.6575 14.8418 3.9935 13.9668 4.39425 13.125H21V15.75H3.38625ZM5.91938 10.5C6.57913 9.555 7.31938 8.68 8.14013 7.875H21V10.5H5.91938ZM11.529 5.25C14.3875 3.5276 17.6627 2.61985 21 2.625V5.25H11.529Z" fill="#007835"/>
</g>
<defs>
<clipPath id="clip0_43_26">
<rect width="42" height="42" fill="white"/>
</clipPath>
</defs>
</svg>
