<svg width="64" height="64" viewBox="0 0 64 64" fill="none" xmlns="http://www.w3.org/2000/svg">
<g id="house-fill 1">
<path id="Vector" d="M33.4931 16.6954C33.0477 16.2501 32.4438 16 31.814 16C31.1842 16 30.5803 16.2501 30.1349 16.6954L14.3483 32.4796C14.2378 32.59 14.1503 32.7211 14.0905 32.8654C14.0308 33.0096 14 33.1642 14 33.3204C14 33.4765 14.0308 33.6311 14.0905 33.7754C14.1503 33.9196 14.2378 34.0507 14.3483 34.1611C14.5712 34.3841 14.8737 34.5094 15.189 34.5094C15.3451 34.5094 15.4998 34.4786 15.644 34.4189C15.7883 34.3591 15.9193 34.2715 16.0297 34.1611L31.814 18.3745L47.5982 34.1611C47.8212 34.3841 48.1237 34.5094 48.439 34.5094C48.7543 34.5094 49.0568 34.3841 49.2798 34.1611C49.5027 33.9381 49.628 33.6357 49.628 33.3204C49.628 33.005 49.5027 32.7026 49.2798 32.4796L43.689 26.8912V19.0704C43.689 18.7554 43.5639 18.4534 43.3412 18.2307C43.1185 18.008 42.8164 17.8829 42.5015 17.8829H40.1265C39.8116 17.8829 39.5095 18.008 39.2868 18.2307C39.0641 18.4534 38.939 18.7554 38.939 19.0704V22.1412L33.4931 16.6954Z" fill="white"/>
<path id="Vector_2" d="M31.814 20.9537L46.064 35.2037V45.1954C46.064 46.1402 45.6886 47.0463 45.0205 47.7144C44.3524 48.3825 43.4463 48.7579 42.5015 48.7579H21.1265C20.1816 48.7579 19.2755 48.3825 18.6074 47.7144C17.9393 47.0463 17.564 46.1402 17.564 45.1954V35.2037L31.814 20.9537Z" fill="white"/>
</g>
</svg>
