<svg width="38" height="35" viewBox="0 0 38 35" fill="none" xmlns="http://www.w3.org/2000/svg">
<path id="Union" d="M10.1124 22.6273C8.23432 20.2722 7.125 17.3648 7.125 14.2188C7.125 6.36595 14.0366 0 22.5625 0C31.0884 0 38 6.36595 38 14.2188C38 22.0716 31.0884 28.4375 22.5625 28.4375C19.1459 28.4375 15.9885 27.4152 13.4312 25.6846L13.4333 25.686C13.3632 25.7735 13.2852 25.8572 13.1992 25.9364L4.05437 34.3593C3.12688 35.2136 1.62311 35.2136 0.695614 34.3593C-0.23188 33.505 -0.23188 32.12 0.695614 31.2657L9.84047 22.8428C9.92645 22.7636 10.0174 22.6918 10.1124 22.6273ZM9.5 14.2188C9.5 20.8634 15.3483 26.25 22.5625 26.25C29.7767 26.25 35.625 20.8634 35.625 14.2188C35.625 7.57407 29.7767 2.1875 22.5625 2.1875C15.3483 2.1875 9.5 7.57407 9.5 14.2188Z" fill="white"/>
</svg>
