<svg width="32" height="32" viewBox="0 0 32 32" fill="none" xmlns="http://www.w3.org/2000/svg">
<path id="Vector" fill-rule="evenodd" clip-rule="evenodd" d="M3.77094 1.02034C4.12089 0.670918 4.5411 0.399857 5.00374 0.225121C5.46637 0.050384 5.96085 -0.024038 6.45442 0.00678643C6.94799 0.0376108 7.42937 0.172978 7.86667 0.403917C8.30396 0.634856 8.68719 0.956093 8.99094 1.34634L12.5809 5.95834C13.2389 6.80434 13.4709 7.90634 13.2109 8.94634L12.1169 13.3263C12.0608 13.5532 12.064 13.7907 12.1264 14.016C12.1887 14.2413 12.3081 14.4466 12.4729 14.6123L17.3869 19.5263C17.5528 19.6915 17.7586 19.8111 17.9842 19.8734C18.2098 19.9358 18.4478 19.9389 18.6749 19.8823L23.0529 18.7883C23.5662 18.6608 24.1017 18.6512 24.6193 18.7603C25.1368 18.8694 25.6229 19.0944 26.0409 19.4183L30.6529 23.0063C32.3109 24.2963 32.4629 26.7463 30.9789 28.2283L28.9109 30.2963C27.4309 31.7763 25.2189 32.4263 23.1569 31.7003C17.8783 29.8455 13.086 26.8238 9.13694 22.8603C5.17369 18.9118 2.15205 14.1203 0.296942 8.84234C-0.427058 6.78234 0.222942 4.56834 1.70294 3.08834L3.77094 1.02034Z" fill="#C7C7C7"/>
</svg>
